# xmcd
#
# Track frame offsets:
#	150
#	31122
#	58965
#	82920
#	123792
#	157803
#	178815
#	219756
#
# Disc length: 3347 seconds
#
# Revision: 1
# Processed by: cddbd v1.5.2PL0 Copyright (c) Steve Scherf et al.
# Submitted via: EasyCDDAExtractor 16.0.6.1
#
DISCID=590d1108
DTITLE=Dzem - 30 urodziny cd2
DYEAR=1900
DGENRE=
TTITLE0=A jednak czegos zal
TTITLE1=Zloty paw
TTITLE2=Kim jestem-jestem sobie
TTITLE3=Modlitwa iii-pozwol mi
TTITLE4=Cma barowa
TTITLE5=Wokol sami lunatycy
TTITLE6=List do m
TTITLE7=Sloneczny dzionek w pewli wielkiej
EXTD=
EXTT0=
EXTT1=
EXTT2=
EXTT3=
EXTT4=
EXTT5=
EXTT6=
EXTT7=
PLAYORDER=
